P3
16 16
255
255 255 255 255 255 255 255 255 255 255 255 255 255 255 255 255 255 255 255 255 255 255 255 255 255 255 255 255 255 255 255 255 255 255 255 255 255 255 255 255 255 255 255 255 255 255 255 255 
255 255 255 255 255 255 255 255 255 255 255 255 255 0 0 255 0 0 255 0 0 255 0 0 255 0 0 255 255 255 255 255 255 255 255 255 255 255 255 255 255 255 255 255 255 255 255 255 
255 255 255 255 255 255 255 255 255 255 0 0 255 0 0 255 0 0 255 0 0 255 0 0 255 0 0 255 0 0 255 0 0 255 0 0 255 255 255 255 255 255 255 255 255 255 255 255 
255 255 255 255 255 255 255 255 255 41 0 3 41 0 3 41 0 3 255 219 172 255 219 172 41 0 3 255 219 172 255 255 255 255 255 255 255 255 255 255 255 255 255 255 255 255 255 255 
255 255 255 255 255 255 41 0 3 255 219 172 41 0 3 255 219 172 255 219 172 255 219 172 41 0 3 255 219 172 255 219 172 255 219 172 255 255 255 255 255 255 255 255 255 255 255 255 
255 255 255 255 255 255 41 0 3 255 219 172 41 0 3 41 0 3 255 219 172 255 219 172 255 219 172 41 0 3 255 219 172 255 219 172 255 219 172 255 255 255 255 255 255 255 255 255 
255 255 255 255 255 255 41 0 3 41 0 3 255 219 172 255 219 172 255 219 172 255 219 172 41 0 3 41 0 3 41 0 3 41 0 3 255 255 255 255 255 255 255 255 255 255 255 255 
255 255 255 255 255 255 255 255 255 255 255 255 255 219 172 255 219 172 255 219 172 255 219 172 255 219 172 255 219 172 255 219 172 255 255 255 255 255 255 255 255 255 255 255 255 255 255 255 
255 255 255 255 255 255 255 255 255 41 0 3 41 0 3 41 0 3 255 0 0 41 0 3 41 0 3 255 255 255 255 255 255 255 255 255 255 255 255 255 255 255 255 255 255 255 255 255 
255 255 255 255 255 255 41 0 3 41 0 3 41 0 3 41 0 3 255 0 0 255 0 0 41 0 3 41 0 3 255 255 255 255 255 255 255 255 255 255 255 255 255 255 255 255 255 255 
255 255 255 255 255 255 41 0 3 41 0 3 41 0 3 255 0 0 255 0 0 255 219 172 255 0 0 255 0 0 255 255 255 255 255 255 255 255 255 255 255 255 255 255 255 255 255 255 
255 255 255 255 255 255 41 0 3 41 0 3 41 0 3 41 0 3 255 0 0 255 0 0 255 0 0 255 0 0 255 255 255 255 255 255 255 255 255 255 255 255 255 255 255 255 255 255 
255 255 255 255 255 255 255 0 0 41 0 3 41 0 3 255 219 172 255 219 172 255 0 0 255 0 0 255 0 0 255 255 255 255 255 255 255 255 255 255 255 255 255 255 255 255 255 255 
255 255 255 255 255 255 255 255 255 255 0 0 41 0 3 255 219 172 255 219 172 255 0 0 255 0 0 255 255 255 255 255 255 255 255 255 255 255 255 255 255 255 255 255 255 255 255 255 
255 255 255 255 255 255 255 255 255 255 255 255 255 0 0 255 0 0 255 0 0 41 0 3 41 0 3 41 0 3 255 255 255 255 255 255 255 255 255 255 255 255 255 255 255 255 255 255 
255 255 255 255 255 255 255 255 255 255 255 255 41 0 3 41 0 3 41 0 3 41 0 3 255 255 255 255 255 255 255 255 255 255 255 255 255 255 255 255 255 255 255 255 255 255 255 255 
